<?xml version="1.0" standalone="no"?>
<!DOCTYPE svg PUBLIC "-//W3C//DTD SVG 20010904//EN"
 "http://www.w3.org/TR/2001/REC-SVG-20010904/DTD/svg10.dtd">
<svg version="1.0" xmlns="http://www.w3.org/2000/svg"
 width="642.000000pt" height="314.000000pt" viewBox="0 0 642.000000 314.000000"
 preserveAspectRatio="xMidYMid meet">

<g transform="translate(0.000000,314.000000) scale(0.100000,-0.100000)"
fill="#000000" stroke="none">
<path d="M2600 2910 c0 -6 -87 -10 -240 -10 l-240 0 0 -270 0 -270 250 0 c243
0 250 1 250 20 0 11 5 20 10 20 16 0 11 50 -7 68 -12 12 -18 13 -21 4 -3 -9
-47 -12 -173 -12 l-169 0 0 70 0 70 99 0 c70 0 101 -4 103 -12 3 -9 9 -8 21 4
21 20 22 74 3 94 -17 16 -46 19 -46 4 0 -6 -37 -10 -90 -10 l-90 0 0 60 0 60
170 0 c107 0 170 -4 170 -10 0 -5 5 -10 10 -10 6 0 10 30 10 70 0 40 -4 70
-10 70 -5 0 -10 -4 -10 -10z"/>
<path d="M700 2840 c0 -33 -4 -60 -10 -60 -5 0 -10 -9 -10 -20 0 -11 -4 -20
-10 -20 -5 0 -10 -9 -10 -20 0 -11 -4 -20 -10 -20 -5 0 -10 -9 -10 -20 0 -11
-4 -20 -10 -20 -5 0 -10 -9 -10 -20 0 -11 -4 -20 -10 -20 -5 0 -10 -9 -10 -20
0 -11 -4 -20 -10 -20 -5 0 -10 -9 -10 -20 0 -11 -4 -20 -10 -20 -5 0 -10 -9
-10 -20 0 -11 -4 -20 -10 -20 -5 0 -10 -9 -10 -20 0 -11 -4 -20 -10 -20 -5 0
-10 -9 -10 -20 0 -11 -4 -20 -10 -20 -5 0 -10 -9 -10 -20 0 -11 -4 -20 -10
-20 -5 0 -10 -4 -10 -10 0 -6 33 -10 80 -10 72 0 80 2 80 19 0 11 -6 22 -12
25 -10 5 -10 7 0 12 6 3 12 17 12 31 0 47 18 53 154 53 119 0 126 -1 126 -20
0 -11 5 -20 10 -20 6 0 10 -9 10 -19 0 -11 6 -22 13 -25 10 -5 10 -7 0 -12 -7
-3 -13 -14 -13 -25 0 -17 8 -19 90 -19 50 0 90 4 90 8 0 4 -9 14 -20 22 -11 8
-20 22 -20 32 0 10 -4 18 -10 18 -5 0 -10 9 -10 20 0 11 -4 20 -10 20 -5 0
-10 9 -10 20 0 11 -4 20 -10 20 -5 0 -10 9 -10 20 0 11 -4 20 -10 20 -5 0 -10
9 -10 20 0 11 -4 20 -10 20 -5 0 -10 9 -10 20 0 11 -4 20 -10 20 -5 0 -10 9
-10 20 0 11 -4 20 -10 20 -5 0 -10 8 -10 18 0 10 -9 24 -20 32 -11 8 -20 22
-20 32 0 10 -4 18 -10 18 -5 0 -10 9 -10 20 0 11 -4 20 -10 20 -5 0 -10 14
-10 30 0 17 5 30 10 30 6 0 10 5 10 10 0 6 -37 10 -90 10 l-90 0 0 -60z m106
-134 c8 -8 14 -22 14 -30 0 -9 5 -16 10 -16 6 0 10 -9 10 -20 0 -11 5 -20 10
-20 6 0 10 -9 10 -20 0 -18 -7 -20 -70 -20 l-70 0 0 30 c0 17 5 30 10 30 6 0
10 9 10 20 0 11 5 20 10 20 6 0 10 9 10 20 0 23 25 27 46 6z"/>
<path d="M1260 2880 c0 -11 5 -20 10 -20 6 0 10 -83 10 -230 0 -147 -4 -230
-10 -230 -5 0 -10 -9 -10 -20 0 -18 7 -20 70 -20 63 0 70 2 70 20 0 11 -4 20
-10 20 -6 0 -10 53 -10 140 0 77 2 140 5 140 12 0 55 -50 55 -62 0 -8 9 -20
20 -28 11 -8 20 -22 20 -32 0 -10 5 -18 10 -18 6 0 10 -9 10 -20 0 -11 5 -20
10 -20 6 0 10 -9 10 -20 0 -11 5 -20 10 -20 6 0 10 -7 10 -16 0 -18 23 -44 40
-44 16 0 40 26 40 42 0 8 9 20 20 28 12 8 20 26 20 42 0 15 5 28 10 28 6 0 10
8 10 18 0 10 9 24 20 32 11 8 20 20 20 28 0 12 43 62 55 62 3 0 5 -72 5 -160
l0 -160 70 0 c63 0 70 2 70 20 0 11 -4 20 -10 20 -6 0 -10 87 -10 240 0 153 4
240 10 240 6 0 10 5 10 10 0 6 -37 10 -90 10 l-90 0 0 -40 c0 -22 -4 -40 -10
-40 -5 0 -10 -8 -10 -18 0 -10 -9 -24 -20 -32 -11 -8 -20 -22 -20 -32 0 -10
-4 -18 -10 -18 -5 0 -10 -9 -10 -20 0 -11 -4 -20 -10 -20 -5 0 -10 -8 -10 -18
0 -10 -9 -24 -20 -32 -11 -8 -20 -22 -20 -32 0 -10 -3 -18 -6 -18 -11 0 -34
29 -34 42 0 8 -9 20 -20 28 -12 8 -20 26 -20 42 0 15 -4 28 -10 28 -5 0 -10 8
-10 18 0 10 -9 24 -20 32 -11 8 -20 22 -20 32 0 10 -4 18 -10 18 -5 0 -10 14
-10 30 0 17 5 30 10 30 6 0 10 5 10 10 0 6 -40 10 -100 10 -93 0 -100 -1 -100
-20z"/>
<path d="M2800 2880 c0 -11 5 -20 10 -20 6 0 10 -83 10 -230 0 -147 -4 -230
-10 -230 -5 0 -10 -9 -10 -20 0 -18 7 -20 70 -20 l70 0 0 106 c0 78 4 109 14
120 16 16 86 19 86 4 0 -5 9 -10 20 -10 12 0 20 -7 20 -16 0 -9 14 -29 30 -44
17 -15 30 -34 30 -42 0 -7 9 -20 20 -28 14 -10 20 -26 20 -52 l0 -38 90 0
c109 0 113 9 40 80 -27 27 -50 55 -50 62 0 8 -9 20 -20 28 -38 27 -17 90 30
90 25 0 50 22 50 44 0 9 5 16 10 16 6 0 10 28 10 65 0 62 -2 68 -35 100 -21
22 -44 35 -60 35 -14 0 -25 5 -25 10 0 6 -77 10 -210 10 -203 0 -210 -1 -210
-20z m406 -94 c8 -8 14 -31 14 -50 0 -29 -4 -36 -20 -36 -11 0 -20 -4 -20 -10
0 -6 -47 -10 -120 -10 l-120 0 0 60 0 60 126 0 c95 0 129 -3 140 -14z"/>
<path d="M3540 2651 c0 -190 -3 -250 -12 -253 -9 -3 -8 -9 4 -21 12 -13 34
-17 82 -17 59 0 66 2 66 20 0 11 -4 20 -10 20 -6 0 -10 83 -10 230 0 147 4
230 10 230 6 0 10 9 10 20 0 18 -7 20 -70 20 l-70 0 0 -249z"/>
<path d="M4020 2890 c0 -5 -7 -10 -15 -10 -9 0 -40 -25 -70 -55 -30 -30 -55
-61 -55 -70 0 -8 -4 -15 -10 -15 -6 0 -10 -40 -10 -100 0 -60 4 -100 10 -100
6 0 10 -9 10 -20 0 -11 5 -20 10 -20 6 0 10 -7 10 -15 0 -19 44 -65 62 -65 8
0 20 -9 28 -20 8 -11 22 -20 32 -20 10 0 18 -4 18 -10 0 -6 43 -10 110 -10 67
0 110 4 110 10 0 6 14 10 30 10 17 0 30 5 30 10 0 6 9 10 20 10 11 0 20 5 20
10 0 6 7 10 16 10 22 0 44 25 44 50 0 11 -11 32 -25 46 l-26 25 -28 -30 c-18
-19 -39 -31 -55 -31 -14 0 -26 -4 -26 -10 0 -6 -33 -10 -80 -10 -47 0 -80 4
-80 10 0 6 -9 10 -20 10 -11 0 -20 5 -20 10 0 6 -7 10 -16 10 -20 0 -44 24
-44 44 0 9 -4 16 -10 16 -6 0 -10 30 -10 70 0 40 4 70 10 70 6 0 10 7 10 15 0
20 45 65 65 65 8 0 15 5 15 10 0 6 14 10 30 10 17 0 30 5 30 10 0 6 18 10 40
10 22 0 40 -4 40 -10 0 -5 17 -10 38 -10 26 0 42 -6 52 -20 8 -11 22 -20 32
-20 11 0 18 -7 18 -20 0 -11 2 -20 5 -20 12 0 55 50 55 64 0 8 6 16 12 18 17
6 -14 38 -36 38 -9 0 -16 5 -16 10 0 6 -9 10 -20 10 -11 0 -20 5 -20 10 0 6
-13 10 -30 10 -16 0 -30 5 -30 10 0 6 -50 10 -130 10 -80 0 -130 -4 -130 -10z"/>
<path d="M4800 2860 c0 -22 -4 -40 -10 -40 -5 0 -10 -9 -10 -20 0 -11 -4 -20
-10 -20 -5 0 -10 -13 -10 -30 0 -16 -4 -30 -10 -30 -5 0 -10 -9 -10 -20 0 -11
-4 -20 -10 -20 -5 0 -10 -9 -10 -20 0 -11 -4 -20 -10 -20 -5 0 -10 -9 -10 -20
0 -11 -4 -20 -10 -20 -5 0 -10 -9 -10 -20 0 -11 -4 -20 -10 -20 -5 0 -10 -9
-10 -20 0 -11 -4 -20 -10 -20 -5 0 -10 -9 -10 -20 0 -11 -4 -20 -10 -20 -5 0
-10 -9 -10 -20 0 -11 -4 -20 -10 -20 -5 0 -10 -9 -10 -20 0 -11 -4 -20 -10
-20 -5 0 -10 -9 -10 -20 0 -18 7 -20 70 -20 l70 0 0 50 c0 28 5 50 10 50 6 0
10 9 10 20 0 19 7 20 126 20 130 0 154 -7 154 -44 0 -9 5 -16 10 -16 6 0 10
-9 10 -20 0 -11 -4 -20 -10 -20 -5 0 -10 -9 -10 -20 0 -18 7 -20 76 -20 55 0
80 4 91 15 14 14 13 18 -6 34 -12 10 -21 26 -21 35 0 9 -4 16 -10 16 -5 0 -10
9 -10 20 0 11 -4 20 -10 20 -5 0 -10 9 -10 20 0 11 -4 20 -10 20 -5 0 -10 9
-10 20 0 11 -4 20 -10 20 -5 0 -10 9 -10 20 0 11 -4 20 -10 20 -5 0 -10 8 -10
18 0 10 -9 24 -20 32 -11 8 -20 26 -20 40 0 14 -9 32 -20 40 -11 8 -20 22 -20
32 0 10 -4 18 -10 18 -5 0 -10 23 -10 50 l0 50 -80 0 -80 0 0 -40z m95 -165
c14 -13 25 -31 25 -40 0 -8 5 -15 10 -15 6 0 10 -13 10 -30 l0 -30 -70 0 c-63
0 -70 2 -70 20 0 11 5 20 10 20 6 0 10 9 10 20 0 11 5 20 10 20 6 0 10 7 10
15 0 14 19 43 28 45 2 0 14 -11 27 -25z"/>
<path d="M5360 2630 l0 -270 60 0 60 0 0 170 c0 94 3 170 6 170 3 0 27 -22 54
-50 27 -27 56 -50 64 -50 9 0 16 -7 16 -15 0 -9 36 -51 80 -95 58 -58 80 -86
80 -105 0 -25 1 -25 80 -25 73 0 80 2 80 20 0 11 -4 20 -10 20 -6 0 -10 87
-10 240 0 153 4 240 10 240 6 0 10 5 10 10 0 6 -30 10 -70 10 l-70 0 0 -30 c0
-16 5 -30 10 -30 6 0 10 -45 10 -116 0 -174 0 -174 -165 -9 -102 101 -135 141
-135 160 0 25 -1 25 -80 25 l-80 0 0 -270z"/>
<path d="M580 1910 c0 -5 -22 -10 -50 -10 -47 0 -65 -11 -37 -24 10 -5 10 -7
0 -12 -15 -7 -17 -44 -3 -44 6 0 10 -65 10 -175 l0 -176 35 -34 c21 -22 44
-35 60 -35 14 0 25 -4 25 -10 0 -6 53 -10 140 -10 87 0 140 4 140 10 0 6 7 10
15 10 20 0 65 45 65 65 0 8 5 15 10 15 6 0 10 14 10 30 0 17 5 30 10 30 6 0
10 67 10 180 0 171 -1 180 -19 180 -11 0 -22 6 -25 13 -5 10 -7 10 -12 0 -3
-7 -19 -13 -35 -13 l-29 0 0 -180 c0 -113 -4 -180 -10 -180 -5 0 -10 -7 -10
-16 0 -26 -26 -44 -64 -44 -20 0 -36 -4 -36 -10 0 -5 -13 -10 -30 -10 -16 0
-30 5 -30 10 0 6 -11 10 -25 10 -29 0 -75 40 -75 65 0 8 -4 15 -10 15 -16 0
-13 317 2 322 9 3 8 9 -4 21 -19 19 -28 21 -28 7z"/>
<path d="M1700 1910 c0 -5 -22 -10 -50 -10 l-50 0 0 -100 c0 -60 4 -100 10
-100 6 0 10 -9 10 -20 0 -11 -4 -20 -10 -20 -5 0 -10 -9 -10 -20 0 -11 5 -20
10 -20 6 0 10 -4 10 -10 0 -18 -35 -11 -50 10 -8 11 -22 20 -32 20 -10 0 -18
7 -18 15 0 9 -45 60 -100 115 -55 55 -100 106 -100 115 0 12 -15 15 -80 15
l-80 0 0 -260 0 -260 70 0 c40 0 70 4 70 10 0 6 -4 10 -10 10 -6 0 -10 57 -10
150 0 172 4 179 70 110 21 -22 46 -40 54 -40 9 0 16 -7 16 -15 0 -9 36 -51 80
-95 58 -58 80 -86 80 -105 0 -25 1 -25 80 -25 73 0 80 2 80 20 0 11 -4 20 -10
20 -16 0 -13 457 2 462 9 3 8 9 -4 21 -19 19 -28 21 -28 7z"/>
<path d="M2260 1910 c0 -6 -30 -10 -70 -10 -40 0 -70 -4 -70 -10 0 -5 5 -10
10 -10 6 0 10 -9 10 -20 0 -11 5 -20 10 -20 6 0 10 -9 10 -20 0 -11 5 -20 10
-20 6 0 10 -9 10 -20 0 -11 5 -20 10 -20 6 0 10 -9 10 -20 0 -11 5 -20 10 -20
6 0 10 -9 10 -20 0 -11 5 -20 10 -20 6 0 10 -9 10 -20 0 -11 5 -20 10 -20 6 0
10 -9 10 -20 0 -11 5 -20 10 -20 6 0 10 -13 10 -30 0 -16 5 -30 10 -30 6 0 10
-9 10 -20 0 -11 5 -20 10 -20 6 0 10 -9 10 -20 0 -11 5 -20 10 -20 6 0 10 -13
10 -30 0 -16 -4 -30 -10 -30 -5 0 -10 -4 -10 -10 0 -6 37 -10 90 -10 53 0 90
4 90 10 0 6 -4 10 -10 10 -5 0 -10 14 -10 30 0 17 5 30 10 30 6 0 10 9 10 20
0 11 5 20 10 20 6 0 10 9 10 20 0 11 5 20 10 20 6 0 10 9 10 20 0 11 5 20 10
20 6 0 10 9 10 20 0 11 5 20 10 20 6 0 10 9 10 20 0 11 5 20 10 20 6 0 10 9
10 20 0 11 5 20 10 20 6 0 10 14 10 30 0 17 5 30 10 30 6 0 10 9 10 20 0 11 5
20 10 20 6 0 10 9 10 20 0 11 5 20 10 20 6 0 10 9 10 20 0 11 5 20 10 20 6 0
10 5 10 10 0 6 -26 10 -59 10 -38 0 -61 4 -63 12 -3 9 -10 7 -24 -6 -13 -14
-15 -21 -6 -24 14 -4 16 -42 2 -42 -5 0 -10 -9 -10 -20 0 -11 -4 -20 -10 -20
-5 0 -10 -9 -10 -20 0 -11 -4 -20 -10 -20 -5 0 -10 -9 -10 -20 0 -11 -4 -20
-10 -20 -5 0 -10 -13 -10 -30 0 -16 -4 -30 -10 -30 -5 0 -10 -9 -10 -20 0 -11
-4 -20 -10 -20 -5 0 -10 -7 -10 -16 0 -15 -23 -44 -34 -44 -3 0 -6 9 -6 20 0
11 -4 20 -10 20 -5 0 -10 9 -10 20 0 11 -4 20 -10 20 -5 0 -10 14 -10 30 0 17
-4 30 -10 30 -5 0 -10 9 -10 20 0 11 -4 20 -10 20 -5 0 -10 9 -10 20 0 11 -4
20 -10 20 -5 0 -10 9 -10 20 0 11 -4 20 -10 20 -5 0 -10 23 -10 50 0 28 -4 50
-10 50 -5 0 -10 -4 -10 -10z"/>
<path d="M3220 1910 c0 -6 -73 -10 -200 -10 l-200 0 0 -260 0 -260 250 0 250
0 0 60 c0 33 -4 60 -10 60 -5 0 -10 -4 -10 -10 0 -6 -67 -10 -180 -10 l-180 0
0 60 c0 53 2 60 20 60 11 0 20 5 20 10 0 6 33 10 80 10 47 0 80 -4 80 -10 0
-5 9 -10 20 -10 17 0 20 7 20 50 l0 50 -120 0 -120 0 0 60 0 60 170 0 c107 0
170 -4 170 -10 0 -5 5 -10 10 -10 6 0 10 27 10 60 l0 60 -40 0 c-22 0 -40 -4
-40 -10z"/>
<path d="M4220 1910 c0 -5 -13 -10 -30 -10 -16 0 -30 -4 -30 -10 0 -5 -7 -10
-16 -10 -20 0 -44 -24 -44 -44 0 -9 -4 -16 -10 -16 -5 0 -10 -9 -10 -20 0 -11
-4 -20 -10 -20 -5 0 -10 -9 -10 -20 0 -11 5 -20 10 -20 6 0 10 -13 10 -30 0
-16 5 -30 10 -30 6 0 10 -9 10 -20 0 -13 7 -20 20 -20 11 0 20 -4 20 -10 0 -5
9 -10 20 -10 11 0 20 -4 20 -10 0 -6 33 -10 80 -10 47 0 80 -4 80 -10 0 -5 21
-10 46 -10 50 0 74 -16 74 -50 0 -25 -22 -50 -44 -50 -9 0 -16 -4 -16 -10 0
-6 -30 -10 -70 -10 -40 0 -70 4 -70 10 0 6 -18 10 -40 10 -22 0 -40 5 -40 10
0 6 -8 10 -18 10 -10 0 -24 9 -32 20 -20 27 -30 25 -30 -6 0 -15 -9 -35 -21
-45 -19 -16 -20 -20 -6 -34 9 -8 23 -15 31 -15 9 0 16 -4 16 -10 0 -5 14 -10
30 -10 17 0 30 -4 30 -10 0 -6 50 -10 130 -10 80 0 130 4 130 10 0 6 11 10 25
10 17 0 41 15 70 45 42 42 45 48 45 100 0 30 -4 55 -10 55 -5 0 -10 7 -10 15
0 25 -46 65 -75 65 -14 0 -25 5 -25 10 0 6 -22 10 -50 10 -27 0 -50 5 -50 10
0 6 -32 10 -76 10 -83 0 -104 11 -104 54 0 19 5 26 20 26 11 0 20 5 20 10 0 6
40 10 100 10 60 0 100 -4 100 -10 0 -5 9 -10 20 -10 11 0 20 -4 20 -10 0 -5 9
-10 19 -10 11 0 21 -6 23 -12 6 -17 38 14 38 36 0 9 5 16 10 16 6 0 10 9 10
20 0 13 -7 20 -20 20 -11 0 -20 5 -20 10 0 6 -13 10 -30 10 -16 0 -30 5 -30
10 0 6 -18 10 -40 10 -22 0 -40 5 -40 10 0 6 -33 10 -80 10 -47 0 -80 -4 -80
-10z"/>
<path d="M4920 1870 l0 -50 100 0 100 0 0 -220 0 -220 70 0 c63 0 70 2 70 20
0 11 -4 20 -10 20 -6 0 -10 69 -10 186 0 147 3 188 14 200 19 18 162 20 168 2
3 -9 10 -8 23 5 15 16 16 20 4 29 -11 7 -11 11 -1 15 6 2 12 18 12 34 0 27 -2
29 -40 29 -22 0 -40 -4 -40 -10 0 -6 -73 -10 -200 -10 -127 0 -200 4 -200 10
0 6 -13 10 -30 10 -29 0 -30 -1 -30 -50z"/>
<path d="M5860 1890 c0 -16 -4 -30 -10 -30 -5 0 -10 -9 -10 -20 0 -11 -4 -20
-10 -20 -5 0 -10 -7 -10 -15 0 -18 -44 -65 -60 -65 -16 0 -40 26 -40 42 0 8
-9 20 -20 28 -11 8 -20 22 -20 32 0 10 -4 18 -10 18 -5 0 -10 9 -10 20 0 18
-7 20 -80 20 -92 0 -102 -12 -50 -60 17 -15 30 -33 30 -40 0 -7 14 -25 30 -40
17 -15 30 -34 30 -42 0 -7 9 -20 20 -28 11 -8 20 -22 20 -32 0 -10 5 -18 10
-18 6 0 10 -50 10 -130 l0 -130 70 0 70 0 0 128 c0 116 2 129 20 142 11 8 20
21 20 30 0 9 9 22 20 30 11 8 20 21 20 28 0 8 14 27 30 42 17 15 30 33 30 40
0 7 14 25 30 40 17 15 30 31 30 34 0 3 -31 6 -70 6 -40 0 -70 4 -70 10 0 6 -4
10 -10 10 -5 0 -10 -13 -10 -30z"/>
<path d="M1880 1640 l0 -260 70 0 70 0 0 260 0 260 -70 0 -70 0 0 -260z"/>
<path d="M3440 1650 c0 -160 -4 -250 -10 -250 -5 0 -10 -4 -10 -10 0 -6 33
-10 80 -10 73 0 80 2 80 20 0 11 -4 20 -10 20 -6 0 -10 32 -10 76 0 92 9 104
80 104 41 0 56 -5 75 -25 14 -13 25 -30 25 -37 0 -8 9 -20 20 -28 11 -8 20
-22 20 -32 0 -10 5 -18 10 -18 6 0 10 -18 10 -40 l0 -40 90 0 c106 0 113 9 50
70 -22 21 -40 45 -40 52 0 7 -9 20 -20 28 -11 8 -20 22 -20 32 0 10 -4 18 -10
18 -5 0 -10 9 -10 20 0 15 7 20 25 20 17 0 41 15 70 45 40 40 45 49 45 90 0
25 -4 45 -10 45 -5 0 -10 9 -10 20 0 11 -4 20 -10 20 -5 0 -10 9 -10 20 0 13
-7 20 -20 20 -11 0 -20 5 -20 10 0 6 -83 10 -230 10 l-230 0 0 -250z m386 156
c8 -8 14 -29 14 -46 0 -53 -16 -60 -140 -60 -124 0 -140 7 -140 60 0 54 13 59
138 60 85 0 117 -4 128 -14z"/>
<path d="M4680 1890 c0 -5 5 -10 10 -10 6 0 10 -90 10 -250 l0 -250 70 0 c40
0 70 4 70 10 0 6 -4 10 -10 10 -6 0 -10 87 -10 240 0 153 4 240 10 240 6 0 10
5 10 10 0 6 -33 10 -80 10 -47 0 -80 -4 -80 -10z"/>
<path d="M4240 930 c0 -6 -87 -10 -240 -10 -153 0 -240 -4 -240 -10 0 -5 5
-10 10 -10 6 0 10 -93 10 -260 l0 -260 250 0 250 0 0 46 c0 29 -6 51 -17 62
-12 12 -18 13 -21 4 -3 -9 -47 -12 -173 -12 l-169 0 0 60 c0 53 2 60 20 60 11
0 20 5 20 10 0 6 27 10 60 10 33 0 60 -4 60 -10 0 -5 18 -10 40 -10 l40 0 0
60 c0 33 -4 60 -10 60 -5 0 -10 -4 -10 -10 0 -6 -43 -10 -110 -10 l-110 0 0
60 0 60 170 0 c107 0 170 -4 170 -10 0 -5 5 -10 10 -10 6 0 10 30 10 70 0 40
-4 70 -10 70 -5 0 -10 -4 -10 -10z"/>
<path d="M660 910 c0 -5 -8 -10 -18 -10 -10 0 -24 -9 -32 -20 -8 -11 -20 -20
-28 -20 -18 0 -62 -46 -62 -65 0 -8 -4 -15 -10 -15 -5 0 -10 -9 -10 -20 0 -11
-4 -20 -10 -20 -6 0 -10 -33 -10 -80 0 -47 4 -80 10 -80 6 0 10 -13 10 -28 0
-16 8 -34 20 -42 11 -8 20 -20 20 -28 0 -18 46 -62 65 -62 8 0 15 -4 15 -10 0
-5 9 -10 20 -10 11 0 20 -4 20 -10 0 -6 43 -10 110 -10 67 0 110 4 110 10 0 6
14 10 30 10 17 0 30 5 30 10 0 6 7 10 15 10 9 0 31 16 50 35 19 19 35 41 35
50 0 8 5 15 10 15 6 0 10 9 10 20 0 11 5 20 10 20 6 0 10 33 10 80 0 47 -4 80
-10 80 -5 0 -10 16 -10 35 0 29 -9 44 -45 80 -24 25 -51 45 -60 45 -8 0 -15 5
-15 10 0 6 -9 10 -20 10 -11 0 -20 5 -20 10 0 6 -47 10 -120 10 -73 0 -120 -4
-120 -10z m160 -80 c0 -5 9 -10 20 -10 11 0 20 -4 20 -10 0 -5 7 -10 15 -10 9
0 31 -16 50 -35 34 -33 35 -37 35 -110 0 -43 -4 -75 -10 -75 -5 0 -10 -7 -10
-15 0 -20 -45 -65 -65 -65 -8 0 -15 -4 -15 -10 0 -6 -33 -10 -80 -10 -47 0
-80 4 -80 10 0 6 -7 10 -16 10 -19 0 -44 24 -44 42 0 8 -9 20 -20 28 -16 12
-20 26 -20 72 0 32 4 58 10 58 6 0 10 11 10 25 0 29 40 75 65 75 8 0 15 5 15
10 0 6 9 10 20 10 11 0 20 5 20 10 0 6 18 10 40 10 22 0 40 -4 40 -10z"/>
<path d="M1180 910 c0 -5 5 -10 10 -10 6 0 10 -89 10 -246 0 -276 0 -274 70
-274 42 0 89 29 62 38 -8 2 -12 31 -12 93 l0 89 30 0 c17 0 30 5 30 10 0 15
157 13 162 -2 8 -23 38 19 38 52 0 33 -30 75 -38 52 -2 -8 -35 -12 -113 -12
l-109 0 0 60 0 60 180 0 180 0 0 50 0 50 -250 0 c-160 0 -250 -4 -250 -10z"/>
<path d="M2040 664 c0 -281 1 -284 60 -284 56 0 60 12 60 184 0 86 2 156 5
156 10 0 295 -290 295 -301 0 -22 30 -39 70 -39 70 0 70 -2 70 274 0 157 4
246 10 246 6 0 10 5 10 10 0 6 -30 10 -70 10 l-70 0 0 -160 c0 -100 -4 -160
-10 -160 -5 0 -10 5 -10 10 0 6 -9 10 -20 10 -13 0 -20 7 -20 20 0 13 -7 20
-20 20 -12 0 -20 7 -20 16 0 20 -24 44 -44 44 -9 0 -16 7 -16 15 0 18 -44 65
-60 65 -17 0 -40 26 -40 44 0 9 -4 16 -10 16 -5 0 -10 7 -10 16 0 31 -27 44
-94 44 l-66 0 0 -256z"/>
<path d="M2760 900 c0 -11 5 -20 10 -20 6 0 10 -90 10 -250 l0 -250 60 0 60 0
0 270 0 270 -70 0 c-63 0 -70 -2 -70 -20z"/>
<path d="M3220 910 c0 -5 -8 -10 -18 -10 -10 0 -24 -9 -32 -20 -8 -11 -20 -20
-28 -20 -18 0 -62 -46 -62 -65 0 -8 -4 -15 -10 -15 -5 0 -10 -9 -10 -20 0 -11
-4 -20 -10 -20 -6 0 -10 -37 -10 -90 0 -53 4 -90 10 -90 6 0 10 -9 10 -20 0
-11 5 -20 10 -20 6 0 10 -7 10 -15 0 -20 65 -85 85 -85 8 0 15 -4 15 -10 0 -5
9 -10 20 -10 11 0 20 -4 20 -10 0 -6 47 -10 120 -10 73 0 120 4 120 10 0 6 14
10 30 10 17 0 30 5 30 10 0 6 14 10 30 10 17 0 30 5 30 10 0 6 7 10 16 10 22
0 53 32 36 38 -8 2 -12 31 -12 93 l0 89 -120 0 c-73 0 -120 4 -120 10 0 6 -4
10 -10 10 -5 0 -10 -22 -10 -50 l0 -50 80 0 80 0 0 -40 c0 -33 -3 -40 -20 -40
-11 0 -20 -4 -20 -10 0 -6 -43 -10 -110 -10 -67 0 -110 4 -110 10 0 6 -7 10
-15 10 -20 0 -65 45 -65 65 0 8 -4 15 -10 15 -6 0 -10 30 -10 70 0 40 4 70 10
70 6 0 10 7 10 15 0 20 45 65 65 65 8 0 15 5 15 10 0 6 9 10 20 10 11 0 20 5
20 10 0 6 27 10 60 10 33 0 60 -4 60 -10 0 -5 9 -10 20 -10 11 0 20 -4 20 -10
0 -5 9 -10 20 -10 11 0 20 -4 20 -10 0 -5 14 -10 30 -10 23 0 30 4 30 20 0 11
5 20 10 20 6 0 10 14 10 30 0 27 -3 30 -30 30 -16 0 -30 5 -30 10 0 6 -9 10
-20 10 -11 0 -20 5 -20 10 0 6 -50 10 -130 10 -80 0 -130 -4 -130 -10z"/>
<path d="M4400 890 c0 -16 5 -30 10 -30 16 0 13 -437 -2 -442 -27 -9 20 -38
62 -38 62 0 70 13 70 124 l0 96 55 0 c50 0 59 -3 90 -35 19 -19 35 -40 35 -47
0 -8 9 -20 20 -28 11 -8 20 -22 20 -32 0 -10 5 -18 10 -18 6 0 10 -7 10 -16 0
-31 27 -44 94 -44 57 0 66 3 66 18 0 10 -9 24 -20 32 -11 8 -20 21 -20 30 0 9
-9 22 -20 30 -11 8 -20 21 -20 28 0 8 -14 27 -31 43 l-30 28 25 26 c14 14 35
25 46 25 25 0 50 22 50 44 0 9 5 16 10 16 6 0 10 27 10 60 0 33 -4 60 -10 60
-5 0 -10 7 -10 15 0 25 -46 65 -75 65 -14 0 -25 5 -25 10 0 6 -77 10 -210 10
l-210 0 0 -30z m406 -84 c21 -22 17 -54 -11 -81 -23 -24 -30 -25 -140 -25
l-115 0 0 60 0 60 126 0 c95 0 129 -3 140 -14z"/>
<path d="M5080 900 c0 -11 5 -20 10 -20 16 0 13 -457 -2 -462 -27 -9 20 -38
62 -38 71 0 70 -3 70 284 l0 256 -70 0 c-63 0 -70 -2 -70 -20z"/>
<path d="M5560 870 c0 -27 -4 -50 -10 -50 -5 0 -10 -9 -10 -20 0 -11 -4 -20
-10 -20 -5 0 -10 -9 -10 -20 0 -11 -4 -20 -10 -20 -5 0 -10 -9 -10 -20 0 -11
-4 -20 -10 -20 -5 0 -10 -9 -10 -20 0 -11 -4 -20 -10 -20 -5 0 -10 -13 -10
-28 0 -16 -8 -34 -20 -42 -11 -8 -20 -22 -20 -32 0 -10 -4 -18 -10 -18 -5 0
-10 -13 -10 -28 0 -16 -8 -34 -20 -42 -14 -10 -20 -26 -20 -52 l0 -38 60 0 60
0 0 45 c0 35 6 52 25 70 23 24 30 25 140 25 104 0 115 -2 115 -18 0 -10 9 -24
20 -32 14 -10 20 -26 20 -52 l0 -38 56 0 c35 0 61 5 70 14 16 17 19 46 4 46
-5 0 -10 9 -10 20 0 11 -4 20 -10 20 -5 0 -10 9 -10 20 0 11 -4 20 -10 20 -5
0 -10 14 -10 30 0 23 -4 30 -20 30 -16 0 -20 7 -20 30 0 17 -4 30 -10 30 -5 0
-10 8 -10 18 0 10 -9 24 -20 32 -11 8 -20 22 -20 32 0 10 -4 18 -10 18 -5 0
-10 9 -10 20 0 11 -4 20 -10 20 -5 0 -10 14 -10 30 0 17 -4 30 -10 30 -5 0
-10 18 -10 40 l0 40 -80 0 -80 0 0 -50z m100 -150 c0 -11 5 -20 10 -20 6 0 10
-9 10 -20 0 -11 5 -20 10 -20 6 0 10 -18 10 -40 l0 -40 -56 0 c-35 0 -61 5
-70 14 -16 17 -19 46 -4 46 6 0 10 9 10 20 0 11 5 20 10 20 6 0 10 7 10 15 0
22 22 44 43 45 10 0 17 -7 17 -20z"/>
</g>
</svg>
